<svg width="33" height="28" viewBox="0 0 33 28" fill="none" xmlns="http://www.w3.org/2000/svg">
<rect width="32.1592" height="27.1343" fill="black"/>
<rect width="30.6517" height="25.6269" fill="#EBEBEB"/>
<rect x="1.50745" y="1.50746" width="29.1443" height="24.1194" fill="#858585"/>
<rect x="1.50745" y="1.50746" width="27.6368" height="22.6119" fill="#CECECE"/>
<rect x="3.01489" y="3.01492" width="26.1294" height="21.1045" fill="#BEBEBE"/>
<rect x="5.02484" y="18.9689" width="4.64801" height="2.324" fill="black"/>
<rect x="7.34888" y="16.6449" width="4.64801" height="2.324" fill="black"/>
<rect x="9.67285" y="14.3209" width="4.64801" height="2.324" fill="black"/>
<rect x="11.9969" y="11.9969" width="4.64801" height="2.324" fill="black"/>
<rect x="14.3209" y="14.3209" width="4.64801" height="2.324" fill="black"/>
<rect x="14.3209" y="9.67289" width="4.64801" height="2.324" fill="black"/>
<rect x="16.6449" y="7.34888" width="4.64801" height="2.324" fill="black"/>
<rect x="18.9689" y="5.02488" width="4.64801" height="2.324" fill="black"/>
<rect x="9.67285" y="9.67289" width="4.64801" height="2.324" fill="black"/>
<rect x="7.34888" y="7.34888" width="4.64801" height="2.324" fill="black"/>
<rect x="5.02484" y="5.02488" width="4.64801" height="2.324" fill="black"/>
<rect x="16.6449" y="16.6449" width="4.64801" height="2.324" fill="black"/>
<rect x="18.9689" y="18.9689" width="4.64801" height="2.324" fill="black"/>
</svg>
