<svg width="19" height="20" viewBox="0 0 19 20" fill="none" xmlns="http://www.w3.org/2000/svg">
<path d="M7.3851 15.7172C3.53895 16.8586 3.53895 13.8149 2.00049 13.4344M12.7697 18V15.0552C12.7986 14.6923 12.749 14.3276 12.6243 13.9852C12.4997 13.6427 12.3027 13.3305 12.0466 13.0691C14.462 12.8028 17.0005 11.8973 17.0005 7.74261C17.0003 6.68022 16.5872 5.65856 15.8466 4.88911C16.1973 3.95963 16.1725 2.93225 15.7774 2.02039C15.7774 2.02039 14.8697 1.75406 12.7697 3.14657C11.0066 2.67389 9.14817 2.67389 7.3851 3.14657C5.2851 1.75406 4.37741 2.02039 4.37741 2.02039C3.98232 2.93225 3.95752 3.95963 4.30818 4.88911C3.56212 5.66427 3.14858 6.69516 3.15433 7.76544C3.15433 11.8897 5.6928 12.7952 8.10818 13.092C7.8551 13.3507 7.65992 13.6592 7.53534 13.9974C7.41076 14.3357 7.35957 14.6961 7.3851 15.0552V18" stroke="#1E1E1E" stroke-width="4" stroke-linecap="round" stroke-linejoin="round"/>
</svg>
