<svg width="34" height="35" viewBox="0 0 34 35" fill="none" xmlns="http://www.w3.org/2000/svg">
<path d="M12.5005 28.5C5.00049 30.75 5.00049 24.75 2.00049 24M23.0005 33V27.195C23.0568 26.4798 22.9601 25.7607 22.717 25.0857C22.4739 24.4107 22.0899 23.7952 21.5905 23.28C26.3005 22.755 31.2505 20.97 31.2505 12.78C31.2501 10.6858 30.4445 8.67183 29.0005 7.15503C29.6843 5.32279 29.6359 3.29755 28.8655 1.50003C28.8655 1.50003 27.0955 0.975029 23.0005 3.72003C19.5625 2.78826 15.9385 2.78826 12.5005 3.72003C8.40549 0.975029 6.63549 1.50003 6.63549 1.50003C5.86505 3.29755 5.8167 5.32279 6.50049 7.15503C5.04568 8.68308 4.23927 10.7152 4.25049 12.825C4.25049 20.955 9.20049 22.74 13.9105 23.325C13.417 23.835 13.0364 24.4431 12.7935 25.1099C12.5505 25.7767 12.4507 26.4871 12.5005 27.195V33" stroke="#1E1E1E" stroke-width="4" stroke-linecap="round" stroke-linejoin="round"/>
</svg>
