<svg width="64" height="54" viewBox="0 0 64 54" fill="none" xmlns="http://www.w3.org/2000/svg">
<rect width="64" height="54" fill="#EBEBEB"/>
<rect width="61" height="51" fill="black"/>
<rect x="3" y="3" width="58" height="48" fill="#D9D9D9"/>
<rect x="3" y="3" width="55" height="45" fill="#858585"/>
<rect x="6" y="6" width="52" height="42" fill="#EBEBEB"/>
<rect x="10" y="37.75" width="9.25" height="4.625" fill="black"/>
<rect x="14.625" y="33.125" width="9.25" height="4.625" fill="black"/>
<rect x="19.25" y="28.5" width="9.25" height="4.625" fill="black"/>
<rect x="23.875" y="23.875" width="9.25" height="4.625" fill="black"/>
<rect x="28.5" y="28.5" width="9.25" height="4.625" fill="black"/>
<rect x="28.5" y="19.25" width="9.25" height="4.625" fill="black"/>
<rect x="33.125" y="14.625" width="9.25" height="4.625" fill="black"/>
<rect x="37.75" y="10" width="9.25" height="4.625" fill="black"/>
<rect x="19.25" y="19.25" width="9.25" height="4.625" fill="black"/>
<rect x="14.625" y="14.625" width="9.25" height="4.625" fill="black"/>
<rect x="10" y="10" width="9.25" height="4.625" fill="black"/>
<rect x="33.125" y="33.125" width="9.25" height="4.625" fill="black"/>
<rect x="37.75" y="37.75" width="9.25" height="4.625" fill="black"/>
</svg>
